<mxfile host="app.diagrams.net" modified="2023-04-19T12:02:45.481Z" agent="Mozilla/5.0 (Windows NT 10.0; Win64; x64) AppleWebKit/537.36 (KHTML, like Gecko) Chrome/112.0.0.0 Safari/537.36" version="21.2.0" etag="HoW3k0Dx-Xmi1oVXrhI1" type="github">
  <diagram name="Seite-1" id="Hj8kGvHpGxAAtV0Tof9G">
    <mxGraphModel>
      <root>
        <mxCell id="0" />
        <mxCell id="1" parent="0" />
      </root>
    </mxGraphModel>
  </diagram>
</mxfile>
